<svg xmlns="http://www.w3.org/2000/svg" viewBox="0 0 512 512">
  <rect width="512" height="512" rx="80" fill="#0a0e1a"/>
  <rect x="30" y="30" width="452" height="452" rx="60" fill="#111827"/>
  <!-- Skull -->
  <circle cx="256" cy="210" r="110" fill="#f5c842"/>
  <circle cx="218" cy="195" r="28" fill="#0a0e1a"/>
  <circle cx="294" cy="195" r="28" fill="#0a0e1a"/>
  <rect x="210" y="250" width="92" height="18" rx="9" fill="#0a0e1a"/>
  <rect x="222" y="268" width="16" height="30" rx="4" fill="#0a0e1a"/>
  <rect x="248" y="268" width="16" height="30" rx="4" fill="#0a0e1a"/>
  <rect x="274" y="268" width="16" height="30" rx="4" fill="#0a0e1a"/>
  <!-- Crossbones -->
  <rect x="80" y="345" width="352" height="28" rx="14" fill="#f5c842" transform="rotate(-30 256 359)"/>
  <rect x="80" y="345" width="352" height="28" rx="14" fill="#f5c842" transform="rotate(30 256 359)"/>
  <!-- Plus sign -->
  <rect x="232" y="105" width="48" height="14" rx="7" fill="#d42b2b"/>
  <rect x="249" y="88" width="14" height="48" rx="7" fill="#d42b2b"/>
</svg>
