<svg xmlns="http://www.w3.org/2000/svg" viewBox="0 0 192 192">
  <rect width="192" height="192" rx="30" fill="#0a0e1a"/>
  <rect x="10" y="10" width="172" height="172" rx="22" fill="#111827"/>
  <!-- Skull -->
  <circle cx="96" cy="80" r="42" fill="#f5c842"/>
  <circle cx="82" cy="74" r="11" fill="#0a0e1a"/>
  <circle cx="110" cy="74" r="11" fill="#0a0e1a"/>
  <rect x="78" y="95" width="36" height="7" rx="3.5" fill="#0a0e1a"/>
  <rect x="82" y="102" width="6" height="11" rx="3" fill="#0a0e1a"/>
  <rect x="93" y="102" width="6" height="11" rx="3" fill="#0a0e1a"/>
  <rect x="104" y="102" width="6" height="11" rx="3" fill="#0a0e1a"/>
  <!-- Crossbones -->
  <rect x="26" y="128" width="140" height="11" rx="5.5" fill="#f5c842" transform="rotate(-28 96 133)"/>
  <rect x="26" y="128" width="140" height="11" rx="5.5" fill="#f5c842" transform="rotate(28 96 133)"/>
  <!-- Plus -->
  <rect x="87" y="38" width="18" height="6" rx="3" fill="#d42b2b"/>
  <rect x="93" y="32" width="6" height="18" rx="3" fill="#d42b2b"/>
</svg>
